HIERARCHY
ROOT ui
{
	 OFFSET 0 0 0
	 CHANNELS 3 XPosition YPosition Z Position
	 EndSite
	 {
	 OFFSET 0 -1 0
	 }
}
ROOT li
{
	 OFFSET 0 0 0
	 CHANNELS 3 XPosition YPosition Z Position
	 EndSite
	 {
	 OFFSET 0 -1 0
	 }
}
ROOT ul
{
	 OFFSET 0 0 0
	 CHANNELS 3 XPosition YPosition Z Position
	 EndSite
	 {
	 OFFSET 0 -1 0
	 }
}
ROOT ll
{
	 OFFSET 0 0 0
	 CHANNELS 3 XPosition YPosition Z Position
	 EndSite
	 {
	 OFFSET 0 -1 0
	 }
}
ROOT tt
{
	 OFFSET 0 0 0
	 CHANNELS 3 XPosition YPosition Z Position
	 EndSite
	 {
	 OFFSET 0 -1 0
	 }
}
ROOT tb
{
	 OFFSET 0 0 0
	 CHANNELS 3 XPosition YPosition Z Position
	 EndSite
	 {
	 OFFSET 0 -1 0
	 }
}
ROOT td
{
	 OFFSET 0 0 0
	 CHANNELS 3 XPosition YPosition Z Position
	 EndSite
	 {
	 OFFSET 0 -1 0
	 }
}
ROOT v
{
	 OFFSET 0 0 0
	 CHANNELS 3 XPosition YPosition Z Position
	 EndSite
	 {
	 OFFSET 0 -1 0
	 }
}
ROOT bn
{
	 OFFSET 0 0 0
	 CHANNELS 3 XPosition YPosition Z Position
	 EndSite
	 {
	 OFFSET 0 -1 0
	 }
}
MOTION
Frames: 16
Frame Time: 0.002
0.0013237040042877197	8.318499922752381E-4	0		0.4579197082519531	-2.29258349609375	0		-1.1064569091796874	-0.033622970581054686	0		-0.78219873046875	-2.23168798828125	0		1.4882664794921876	-0.5254922485351563	0		3.051825439453125	0.05900445556640625	0		4.5758828125	0.16212335205078124	0		5.59970361328125	0.24303446960449218	0		-0.39244403076171874	5.85369287109375	0		
0.010027741432189942	-0.008853754997253417	0		0.43085772705078124	-2.289632568359375	0		-1.1075745849609375	-0.03314177703857422	0		-0.7833004760742187	-2.231204345703125	0		1.498432861328125	-0.5091887512207032	0		3.04042626953125	0.04369479751586914	0		4.56576513671875	0.16280465698242189	0		5.59890673828125	0.24395008850097658	0		-0.3936046142578125	5.85417919921875	0		
0.008934786796569824	-0.00835722827911377	0		0.4786506652832031	-2.296995849609375	0		-1.1127373046875	-0.036582389831542966	0		-0.796269287109375	-2.224503173828125	0		1.4942735595703125	-0.5126276245117187	0		3.07764453125	0.06154093551635742	0		4.57056396484375	0.15723011779785157	0		5.60230615234375	0.23085865783691406	0		-0.3947410888671875	5.8546728515625	0		
-0.001944722056388855	0.0023155810832977295	0		0.4178664245605469	-2.28143896484375	0		-1.11379443359375	-0.03609261322021484	0		-0.7993450927734375	-2.225975341796875	0		1.5101468505859375	-0.5164175415039063	0		3.027523681640625	0.05892612838745117	0		4.55464892578125	0.16602523803710936	0		5.59099365234375	0.251275390625	0		-0.41001602172851564	5.845416015625	0		
0.0068649578094482425	-0.007363787174224853	0		0.4516536560058594	-2.293555419921875	0		-1.1107369384765624	-0.031676559448242186	0		-0.7775916137695312	-2.239888916015625	0		1.478107666015625	-0.51736474609375	0		3.0666103515625	0.06473782348632813	0		4.57335009765625	0.15020387268066407	0		5.594412109375	0.2329916229248047	0		-0.39689724731445314	5.85566015625	0		
0.01202766513824463	1.86110008507967E-5	0		0.43088943481445313	-2.28271240234375	0		-1.101733154296875	-0.03337113571166992	0		-0.7744656372070312	-2.2354765625	0		1.50609423828125	-0.5203754272460938	0		3.045248046875	0.04260447311401367	0		4.55551513671875	0.1580237274169922	0		5.5989091796875	0.25963784790039063	0		-0.39691619873046874	5.85512890625	0		
0.011127278327941895	4.988659918308258E-4	0		0.47885614013671873	-2.291090576171875	0		-1.1125965576171875	-0.030722713470458983	0		-0.786208251953125	-2.22680908203125	0		1.47932470703125	-0.5124283447265625	0		3.0678544921875	0.0716959457397461	0		4.569734375	0.16526971435546875	0		5.5953271484375	0.24854693603515626	0		-0.39883865356445314	5.8566240234375	0		
0.0072379732131958	-0.0019788960218429567	0		0.4230599670410156	-2.28865087890625	0		-1.113433349609375	-0.030260950088500976	0		-0.756158935546875	-2.233889892578125	0		1.4895245361328124	-0.5101438598632813	0		3.0286884765625	0.05385623550415039	0		4.56579150390625	0.15982168579101563	0		5.59249072265625	0.23567263793945312	0		-0.39971322631835937	5.85709033203125	0		
0.003396215915679932	-0.005469872951507569	0		0.448244873046875	-2.29164990234375	0		-1.1182747802734374	-0.0337409782409668	0		-0.7938942260742188	-2.231787841796875	0		1.488755615234375	-0.509679443359375	0		3.054806640625	0.04785569763183594	0		4.5650185546875	0.16030433654785156	0		5.58779931640625	0.25572676086425783	0		-0.4146935729980469	5.84779150390625	0		
-0.007133063793182373	0.005145092010498047	0		0.421607177734375	-2.28775	0		-1.11491162109375	-0.02937730598449707	0		-0.7925541381835938	-2.229386962890625	0		1.479841796875	-0.5210883178710938	0		3.03910205078125	0.048576465606689455	0		4.5543125	0.1609452362060547	0		5.5914365234375	0.2373301544189453	0		-0.41543154907226565	5.84822998046875	0		
0.002047434091567993	-0.004604825973510742	0		0.42301077270507814	-2.285359130859375	0		-1.1155535888671875	-0.028958192825317385	0		-0.8152350463867187	-2.2315791015625	0		1.4763785400390625	-0.510605712890625	0		3.057702880859375	0.06267902755737305	0		4.56165087890625	0.16025070190429688	0		5.59321875	0.25185595703125	0		-0.4019277038574219	5.858404296875	0		
0.007591683864593506	0.002695681095123291	0		0.42244241333007815	-2.2849501953125	0		-1.11613134765625	-0.028555795669555663	0		-0.7917194213867188	-2.22659814453125	0		1.475802734375	-0.5101925048828125	0		3.02598876953125	0.055645000457763674	0		4.55719580078125	0.1677460174560547	0		5.592806640625	0.2525997772216797	0		-0.41670367431640626	5.8490576171875	0		
9.551990032196045E-4	-0.003809093952178955	0		0.4120962219238281	-2.2753857421875	0		-1.1166456298828125	-0.0281712589263916	0		-0.8041182861328126	-2.22000244140625	0		1.49221728515625	-0.5140964965820313	0		3.065573486328125	0.061340946197509766	0		4.552576171875	0.16222276306152345	0		5.58606005859375	0.2587701416015625	0		-0.40306610107421875	5.859197265625	0		
5.028489828109742E-4	-0.0034395959377288817	0		0.4693086853027344	-2.295031005859375	0		-1.12116748046875	-0.03173460388183594	0		-0.8086328735351562	-2.223564697265625	0		1.4658936767578126	-0.5062662658691406	0		3.016058349609375	0.05858233642578125	0		4.552123046875	0.16260752868652345	0		5.58987841796875	0.2402317199707031	0		-0.40353811645507814	5.85956494140625	0		
1.1038299649953842E-4	-0.0030895369052886964	0		0.4190716552734375	-2.28580224609375	0		-1.1115965576171876	-0.03356344223022461	0		-0.7862678833007812	-2.237619140625	0		1.4772725830078124	-0.5191204223632813	0		3.055764892578125	0.06423820495605469	0		4.55971142578125	0.16183148193359376	0		5.5895986328125	0.24086712646484376	0		-0.403948974609375	5.8599140625	0		
0.005897377967834473	0.004134995937347412	0		0.4487740478515625	-2.283997314453125	0		-1.1009683837890625	-0.03542871856689453	0		-0.7804916381835938	-2.231396728515625	0		1.4830611572265624	-0.5118913879394531	0		3.06423486328125	0.05342208862304688	0		4.54937744140625	0.16235197448730468	0		5.5945400390625	0.26720184326171875	0		-0.4023372497558594	5.858208984375	0		
